<?xml version="1.0" encoding="UTF-8"?>
<svg width="513px" height="512px" viewBox="0 0 513 512" version="1.1" xmlns="http://www.w3.org/2000/svg" xmlns:xlink="http://www.w3.org/1999/xlink">
    <!-- Generator: Sketch 51.2 (57519) - http://www.bohemiancoding.com/sketch -->
    <title>cookie</title>
    <desc>Created with Sketch.</desc>
    <defs></defs>
    <g id="Page-1" stroke="none" stroke-width="1" fill="none" fill-rule="evenodd">
        <g id="cookie" fill-rule="nonzero">
            <path d="M426.039062,216 C426.039062,258.898438 460.058594,293.738281 502.5,295.640625 C483.570312,409.28125 375.511719,502 256.5,502 C123.949219,502 10.5,388.550781 10.5,256 C10.5,123.449219 123.949219,10 256.5,10 C274.71875,10 292.398438,12.210938 309.460938,16.058594 C301.238281,32.300781 296.5,53.589844 296.5,73 C296.5,139.171875 359.871094,196 426.039062,196 C427.019531,196 427.960938,195.878906 428.929688,195.851562 C427.230469,202.328125 426.039062,209 426.039062,216 Z" id="Shape" fill="#28AFB0"></path>
            <g id="Group" transform="translate(96.000000, 156.000000)" fill="#0068AD">
                <path d="M180.5,160 C191.550781,160 200.5,168.949219 200.5,180 C200.5,191.050781 191.550781,200 180.5,200 C169.449219,200 160.5,191.050781 160.5,180 C160.5,168.949219 169.449219,160 180.5,160 Z" id="Shape"></path>
                <path d="M180.5,60 C180.5,82.089844 162.589844,100 140.5,100 C118.410156,100 100.5,82.089844 100.5,60 C100.5,37.910156 118.410156,20 140.5,20 C162.589844,20 180.5,37.910156 180.5,60 Z" id="Shape"></path>
                <path d="M80.5,210 C80.5,226.570312 67.070312,240 50.5,240 C33.929688,240 20.5,226.570312 20.5,210 C20.5,193.429688 33.929688,180 50.5,180 C67.070312,180 80.5,193.429688 80.5,210 Z" id="Shape"></path>
                <path d="M20.5,0 C31.550781,0 40.5,8.949219 40.5,20 C40.5,31.050781 31.550781,40 20.5,40 C9.449219,40 0.5,31.050781 0.5,20 C0.5,8.949219 9.449219,0 20.5,0 Z" id="Shape"></path>
            </g>
            <path d="M146.5,326 C124.445312,326 106.5,343.945312 106.5,366 C106.5,388.054688 124.445312,406 146.5,406 C168.554688,406 186.5,388.054688 186.5,366 C186.5,343.945312 168.554688,326 146.5,326 Z M146.5,386 C135.472656,386 126.5,377.027344 126.5,366 C126.5,354.972656 135.472656,346 146.5,346 C157.527344,346 166.5,354.972656 166.5,366 C166.5,377.027344 157.527344,386 146.5,386 Z" id="Shape" fill="#000000"></path>
            <path d="M246.5,336 C246.5,352.542969 259.957031,366 276.5,366 C293.042969,366 306.5,352.542969 306.5,336 C306.5,319.457031 293.042969,306 276.5,306 C259.957031,306 246.5,319.457031 246.5,336 Z M286.5,336 C286.5,341.515625 282.015625,346 276.5,346 C270.984375,346 266.5,341.515625 266.5,336 C266.5,330.484375 270.984375,326 276.5,326 C282.015625,326 286.5,330.484375 286.5,336 Z" id="Shape" fill="#000000"></path>
            <path d="M116.5,206 C133.042969,206 146.5,192.542969 146.5,176 C146.5,159.457031 133.042969,146 116.5,146 C99.957031,146 86.5,159.457031 86.5,176 C86.5,192.542969 99.957031,206 116.5,206 Z M116.5,166 C122.015625,166 126.5,170.484375 126.5,176 C126.5,181.515625 122.015625,186 116.5,186 C110.984375,186 106.5,181.515625 106.5,176 C106.5,170.484375 110.984375,166 116.5,166 Z" id="Shape" fill="#000000"></path>
            <path d="M352.5,376 C352.5,381.523438 356.976562,386 362.5,386 L402.5,386 C408.023438,386 412.5,381.523438 412.5,376 C412.5,370.476562 408.023438,366 402.5,366 L362.5,366 C356.976562,366 352.5,370.476562 352.5,376 Z" id="Shape" fill="#000000"></path>
            <path d="M342.5,266 L382.5,266 C388.023438,266 392.5,261.523438 392.5,256 C392.5,250.476562 388.023438,246 382.5,246 L342.5,246 C336.976562,246 332.5,250.476562 332.5,256 C332.5,261.523438 336.976562,266 342.5,266 Z" id="Shape" fill="#000000"></path>
            <path d="M146.5,276 C146.5,270.476562 142.023438,266 136.5,266 L76.5,266 C70.976562,266 66.5,270.476562 66.5,276 C66.5,281.523438 70.976562,286 76.5,286 L136.5,286 C142.023438,286 146.5,281.523438 146.5,276 Z" id="Shape" fill="#000000"></path>
            <path d="M196.5,83 L236.5,83 C242.023438,83 246.5,78.523438 246.5,73 C246.5,67.476562 242.023438,63 236.5,63 L196.5,63 C190.976562,63 186.5,67.476562 186.5,73 C186.5,78.523438 190.976562,83 196.5,83 Z" id="Shape" fill="#000000"></path>
            <path d="M296.5,426 L236.5,426 C230.976562,426 226.5,430.476562 226.5,436 C226.5,441.523438 230.976562,446 236.5,446 L296.5,446 C302.023438,446 306.5,441.523438 306.5,436 C306.5,430.476562 302.023438,426 296.5,426 Z" id="Shape" fill="#000000"></path>
            <path d="M286.5,216 C286.5,188.429688 264.070312,166 236.5,166 C208.929688,166 186.5,188.429688 186.5,216 C186.5,243.570312 208.929688,266 236.5,266 C264.070312,266 286.5,243.570312 286.5,216 Z M206.5,216 C206.5,199.457031 219.957031,186 236.5,186 C253.042969,186 266.5,199.457031 266.5,216 C266.5,232.542969 253.042969,246 236.5,246 C219.957031,246 206.5,232.542969 206.5,216 Z" id="Shape" fill="#000000"></path>
            <path d="M318.507812,11.800781 C317.195312,9.011719 314.667969,6.984375 311.660156,6.304688 C293.121094,2.121094 274.5625,0 256.5,0 C118.351562,0 0.5,117.960938 0.5,256 C0.5,393.902344 118.191406,512 256.5,512 C379.953125,512 492.539062,416.289062 512.363281,297.28125 C512.835938,294.460938 512.074219,291.570312 510.273438,289.347656 C508.472656,287.125 505.804688,285.777344 502.945312,285.648438 C465.429688,283.96875 436.039062,253.375 436.039062,216 C436.039062,210.652344 436.855469,205.054688 438.601562,198.386719 C439.402344,195.335938 438.71875,192.089844 436.753906,189.621094 C432.875,184.753906 427.597656,186 426.039062,186 C363.476562,186 306.5,132.140625 306.5,73 C306.5,54.875 310.941406,35.277344 318.382812,20.574219 C319.773438,17.824219 319.820312,14.589844 318.507812,11.800781 Z M329.636719,166.628906 C354.066406,189.402344 385.371094,203.335938 416.753906,205.65625 C416.273438,209.203125 416.039062,212.613281 416.039062,216 C416.039062,260.230469 447.984375,297.078125 490.625,304.402344 C467.667969,408.761719 364.9375,492 256.5,492 C128.574219,492 20.5,383.925781 20.5,256 C20.5,128.074219 128.574219,20 256.5,20 C269.242188,20 282.273438,21.152344 295.378906,23.4375 C289.734375,38.695312 286.5,56.421875 286.5,73 C286.5,106.945312 302.222656,141.074219 329.636719,166.628906 Z" id="Shape" fill="#000000"></path>
        </g>
    </g>
</svg>