<svg xmlns="http://www.w3.org/2000/svg" viewBox="0 0 371.62 35.87"><defs><style>.cls-1{fill:#fff;}</style></defs><title>kranjskaGoraLogo</title><g id="Layer_2" data-name="Layer 2"><g id="Layer_1-2" data-name="Layer 1"><path class="cls-1" d="M238,.18c-2.5-.06-2.93-.13-5.43-.18a3.35,3.35,0,0,0-2.63,1.15c-9.6,11.45-26.4,32.8-26.4,32.8-.83,1-.38,1.92,1,1.92h.39c3.19,0,4.15-.77,5.3-1.82,0,0,20.3-18.89,30.12-29.06C242.1,3.15,240.7.26,238,.18Z"/><path class="cls-1" d="M255.8.18c-2.5-.06-2.93-.13-5.42-.18a3.36,3.36,0,0,0-2.64,1.15C238.14,12.6,221.35,34,221.35,34c-.83,1-.39,1.92,1,1.92h.39c3.19,0,4.16-.77,5.3-1.82,0,0,20.3-18.89,30.12-29.06C259.92,3.15,258.53.26,255.8.18Z"/><path class="cls-1" d="M79.57,31V3.21L97.71,20.74V4.35H103V32.14L84.9,14.26V31Z"/><path class="cls-1" d="M105.14,31V26.42c.65.18,1.18.31,1.58.39a10.21,10.21,0,0,0,1.15.16c.37,0,.78.05,1.22.05a6.72,6.72,0,0,0,5.53-2.22,5.1,5.1,0,0,0,1.06-2.21,23.65,23.65,0,0,0,.24-4V4.35h5.32V20.47a16.53,16.53,0,0,1-.3,3.37,8.92,8.92,0,0,1-1,2.59,9.45,9.45,0,0,1-1.77,2.21,10.48,10.48,0,0,1-3.72,2.16,14.45,14.45,0,0,1-4.74.77,19.5,19.5,0,0,1-2-.1C107.13,31.4,106.28,31.23,105.14,31Z"/><path class="cls-1" d="M124.63,30.79V26.53l2.11.34c1.81.17,3.41.26,4.81.26a16.42,16.42,0,0,0,5.89-.79,2.61,2.61,0,0,0,1.88-2.5,2.13,2.13,0,0,0-.47-1.37,4.51,4.51,0,0,0-1.53-1.11c-.6-.32-2.06-.94-4.37-1.88-1.25-.52-2.19-.93-2.82-1.25s-1.32-.72-2-1.18a7.61,7.61,0,0,1-2.38-2.54,6.53,6.53,0,0,1-.8-3.21,6.17,6.17,0,0,1,3-5.57c2-1.26,5-1.89,8.9-1.89.88,0,1.85,0,2.92.11a37.76,37.76,0,0,1,3.95.4v4.2l-1.11-.09-.62-.05a44.7,44.7,0,0,0-4.76-.24,13.72,13.72,0,0,0-5.07.69,2.32,2.32,0,0,0-1.59,2.24,2.62,2.62,0,0,0,1.55,2.25,40,40,0,0,0,4,1.89c1.08.42,1.9.75,2.44,1a20.93,20.93,0,0,1,2.81,1.45,8,8,0,0,1,2.82,2.64,6.4,6.4,0,0,1,1,3.45A6.37,6.37,0,0,1,143.62,28a8.75,8.75,0,0,1-4.29,2.56,24.7,24.7,0,0,1-7,.86c-.89,0-2,0-3.43-.12-.92-.08-1.64-.14-2.15-.2S125.52,30.93,124.63,30.79Z"/><polygon class="cls-1" points="169.81 31.01 176 31.01 185.79 13.33 195.64 31.01 201.83 31.01 185.83 3.21 169.81 31.01"/><path class="cls-1" d="M194.29,31.76l-2.83-5.08C188,31,185.71,34,185.71,34c-.83,1-.39,1.92,1,1.92h.4c3.18,0,4.15-.77,5.29-1.82l2.1-1.95Z"/><path class="cls-1" d="M220.16.18c-2.49-.06-2.92-.13-5.42-.18a3.35,3.35,0,0,0-2.63,1.15c-4.29,5.12-10,12.21-15,18.49l3.74,6.5c6.75-6.39,16-15.24,21.7-21.15C224.29,3.15,222.89.26,220.16.18Z"/><path class="cls-1" d="M285.42,17.7a14.24,14.24,0,0,1,1.08-5.61,12.85,12.85,0,0,1,3.06-4.43,13.65,13.65,0,0,1,4.71-2.91,17.54,17.54,0,0,1,11.79,0,13.82,13.82,0,0,1,4.69,2.89,13.05,13.05,0,0,1,3.05,4.43,14.38,14.38,0,0,1,1.08,5.63,14.28,14.28,0,0,1-1.07,5.59,13.25,13.25,0,0,1-3.07,4.44,13.77,13.77,0,0,1-4.68,2.92,17.54,17.54,0,0,1-11.79,0,13.82,13.82,0,0,1-4.7-2.93,13,13,0,0,1-3.08-4.44A14.2,14.2,0,0,1,285.42,17.7Zm14.75-9.35a9.81,9.81,0,0,0-4.82,1.19A8.38,8.38,0,0,0,292,12.85a9.82,9.82,0,0,0-1.19,4.85A9.71,9.71,0,0,0,292,22.53a8.49,8.49,0,0,0,3.31,3.31A9.89,9.89,0,0,0,300.17,27a9.76,9.76,0,0,0,4.8-1.19,8.44,8.44,0,0,0,3.33-3.32,9.66,9.66,0,0,0,1.18-4.81,10.33,10.33,0,0,0-.66-3.75,8.74,8.74,0,0,0-1.92-3,8.6,8.6,0,0,0-3-1.94A10,10,0,0,0,300.17,8.35Z"/><path class="cls-1" d="M270.9,17.62v3.83H277v3.12a8.69,8.69,0,0,1-1.71,1.26,9.76,9.76,0,0,1-4.8,1.19,9.87,9.87,0,0,1-4.85-1.18,8.43,8.43,0,0,1-3.31-3.31,9.61,9.61,0,0,1-1.19-4.83,9.71,9.71,0,0,1,1.19-4.85,8.31,8.31,0,0,1,3.34-3.31,9.81,9.81,0,0,1,4.82-1.19,10,10,0,0,1,3.76.69,8.76,8.76,0,0,1,2.81,1.81l3.77-3.41a13.92,13.92,0,0,0-4.46-2.69,17.54,17.54,0,0,0-11.79,0,13.84,13.84,0,0,0-4.71,2.91,13.13,13.13,0,0,0-3.06,4.43,14.42,14.42,0,0,0-1.07,5.61,14,14,0,0,0,1.07,5.58,12.84,12.84,0,0,0,3.07,4.44,13.67,13.67,0,0,0,4.7,2.93,17.54,17.54,0,0,0,11.79,0c.22-.08.42-.18.63-.27a13.4,13.4,0,0,0,4.05-2.65,12.56,12.56,0,0,0,1.37-1.55V17.62Z"/><path class="cls-1" d="M46,27.39l-6.7-6.62.32-.11a9.47,9.47,0,0,0,2.44-1.26,7.25,7.25,0,0,0,3.34-6.35,8.46,8.46,0,0,0-1.14-4.4,7.49,7.49,0,0,0-3.22-2.93,12.1,12.1,0,0,0-3.17-1.07,25,25,0,0,0-4.31-.3H24.28V31H29.6V21.62l3,0,10.64,10.5Zm-7.63-11A9,9,0,0,1,33,17.72H29.6V8.37h3.79c1.86,0,3.73.09,5,.85a4.19,4.19,0,0,1,1.85,3.63A3.91,3.91,0,0,1,38.38,16.39Z"/><polygon class="cls-1" points="62.11 13.33 71.97 31.01 78.15 31.01 62.15 3.21 46.13 31.01 52.32 31.01 62.11 13.33"/><polygon class="cls-1" points="355.58 13.33 365.44 31.01 371.62 31.01 355.62 3.21 339.6 31.01 345.79 31.01 355.58 13.33"/><polygon class="cls-1" points="22.3 27.46 11.35 16.62 22.1 6.18 17.92 3.78 5.33 15.88 5.33 4.35 0 4.35 0 31.01 5.33 31.01 5.33 18.17 19.58 32.15 22.3 27.46"/><polygon class="cls-1" points="169.65 27.46 158.7 16.62 169.45 6.18 165.27 3.78 152.68 15.88 152.68 4.35 147.35 4.35 147.35 31.01 152.68 31.01 152.68 18.17 166.94 32.15 169.65 27.46"/><path class="cls-1" d="M339.64,27.39l-6.71-6.62.32-.11a9.68,9.68,0,0,0,2.45-1.26A7.26,7.26,0,0,0,339,13.05a8.46,8.46,0,0,0-1.14-4.4,7.49,7.49,0,0,0-3.22-2.93,12,12,0,0,0-3.17-1.07,25,25,0,0,0-4.31-.3H317.9V31h5.32V21.62l3.06,0,10.63,10.5Zm-7.64-11a8.94,8.94,0,0,1-5.35,1.33h-3.43V8.37H327c1.86,0,3.73.09,5,.85a4.2,4.2,0,0,1,1.84,3.63A3.89,3.89,0,0,1,332,16.39Z"/></g></g></svg>