<?xml version="1.0" encoding="UTF-8"?>
<svg width="210px" height="225px" viewBox="0 0 210 225" version="1.1" xmlns="http://www.w3.org/2000/svg" xmlns:xlink="http://www.w3.org/1999/xlink">
    <!-- Generator: Sketch 51.2 (57519) - http://www.bohemiancoding.com/sketch -->
    <title>SectionTitleTriangles</title>
    <desc>Created with Sketch.</desc>
    <defs>
        <polygon id="path-1" points="0.167584444 0.118851429 35.3703111 0.118851429 35.3703111 35.5389943 0.167584444 35.5389943"></polygon>
        <polygon id="path-3" points="0 0.34352875 40.6424288 0.34352875 40.6424288 40.985035 0 40.985035"></polygon>
    </defs>
    <g id="Symbols" stroke="none" stroke-width="1" fill="none" fill-rule="evenodd" opacity="0.5">
        <g id="SectionTitle">
            <g id="SectionTitleTriangles">
                <path d="M120.497506,70.1744283 L154.631523,104.480102 L166.772961,57.2584107 L120.497506,70.1744283 Z M154.90199,106 C154.769308,106 154.640709,105.948091 154.542728,105.850502 L119.151293,70.281361 C119.021673,70.1505501 118.970641,69.9595247 119.016569,69.7809575 C119.062498,69.6013521 119.199262,69.4601594 119.374811,69.4113648 L167.354721,56.0188218 C167.531291,55.9689891 167.719087,56.01986 167.848707,56.1506709 C167.978327,56.2804436 168.029359,56.471469 167.983431,56.6510744 L155.395976,105.612758 C155.349027,105.792364 155.213283,105.932518 155.036714,105.982351 C154.992827,105.993771 154.946898,106 154.90199,106 Z" id="Fill-1" fill="#28AFB0"></path>
                <path d="M120.497506,74.1740272 L154.631523,108.479091 L166.77194,61.2582392 L120.497506,74.1740272 Z M154.90199,110 C154.769308,110 154.640709,109.947054 154.542728,109.849466 L119.151293,74.280958 C119.021673,74.1501494 118.970641,73.9591274 119.016569,73.7805633 C119.062498,73.6009611 119.199262,73.4597709 119.374811,73.4109772 L167.354721,60.0186723 C167.529249,59.9688405 167.718066,60.0207487 167.848707,60.1505191 C167.978327,60.2802895 168.029359,60.4713115 167.983431,60.6509137 L155.395976,109.612765 C155.349027,109.791329 155.213283,109.931481 155.036714,109.981313 C154.992827,109.993771 154.946898,110 154.90199,110 Z" id="Fill-3" fill="#0068AD"></path>
                <path d="M27.5324793,159.637387 L98.0265379,223.508869 L118.779505,131.268977 L27.5324793,159.637387 Z M98.3390419,225 C98.2103027,225 98.0846782,224.952825 97.9881238,224.865655 L26.168259,159.792243 C26.031214,159.669178 25.9720355,159.482531 26.0125261,159.304087 C26.0530166,159.124618 26.1869469,158.981043 26.3634442,158.926689 L119.325609,130.023975 C119.501068,129.968596 119.695215,130.010643 119.831222,130.134733 C119.968267,130.258823 120.027445,130.44547 119.987993,130.623914 L98.845693,224.599015 C98.8052024,224.778484 98.6712721,224.921034 98.4947748,224.976413 C98.4439021,224.992821 98.3909529,225 98.3390419,225 Z" id="Fill-5" fill="#28AFB0"></path>
                <g id="Group-9" transform="translate(174.000000, 83.000000)">
                    <mask id="mask-2" fill="white">
                        <use xlink:href="#path-1"></use>
                    </mask>
                    <g id="Clip-8"></g>
                    <path d="M34.8589956,35.5389943 C34.7281511,35.5389943 34.5973067,35.4885943 34.4971289,35.3888229 L0.317084444,0.99648 C0.117751111,0.795908571 0.117751111,0.469851429 0.317084444,0.26928 C0.51744,0.0687085714 0.840462222,0.0687085714 1.04081778,0.26928 L35.2208622,34.6605943 C35.4201956,34.8621943 35.4201956,35.1872229 35.2208622,35.3888229 C35.1206844,35.4885943 34.98984,35.5389943 34.8589956,35.5389943" id="Fill-7" fill="#28AFB0" mask="url(#mask-2)"></path>
                </g>
                <path d="M202.477307,116 C202.343564,116 202.209822,115.948801 202.107425,115.847449 L163.152811,76.8915359 C162.949063,76.6877861 162.949063,76.357607 163.152811,76.1528123 C163.357605,75.9490626 163.687782,75.9490626 163.89153,76.1528123 L202.847189,115.10768 C203.050937,115.312475 203.050937,115.642654 202.847189,115.847449 C202.744792,115.948801 202.611049,116 202.477307,116" id="Fill-10" fill="#28AFB0"></path>
                <path d="M24.5324877,155.636681 L95.0269359,219.508853 L115.77898,127.26899 L24.5324877,155.636681 Z M95.3394417,221 C95.2107017,221 95.0850765,220.952825 94.9885216,220.865653 L23.1682599,155.791539 C23.0312142,155.668473 22.9720354,155.481823 23.0125261,155.303378 C23.0530169,155.123907 23.186948,154.98033 23.3634462,154.925976 L116.325086,126.023975 C116.500546,125.968595 116.695733,126.010643 116.83174,126.134734 C116.968786,126.258825 117.027965,126.445475 116.987474,126.623921 L95.8460955,220.599011 C95.8056047,220.778482 95.6716737,220.921033 95.4951754,220.976412 C95.4443024,220.992821 95.3913529,221 95.3394417,221 Z" id="Fill-12" fill="#28AFB0"></path>
                <path d="M131.496963,207 C131.36825,207 131.239537,206.950727 131.140992,206.853186 L94.1470647,169.858009 C93.9509784,169.661921 93.9509784,169.344159 94.1470647,169.147066 C94.3441564,168.950978 94.6619167,168.950978 94.8580029,169.147066 L131.852935,206.141237 C132.049022,206.33833 132.049022,206.656093 131.852935,206.853186 C131.754389,206.950727 131.625676,207 131.496963,207" id="Fill-14" fill="#28AFB0"></path>
                <path d="M22.5324793,154.637387 L93.0275761,218.508869 L113.779505,126.268977 L22.5324793,154.637387 Z M93.3390419,220 C93.2113409,220 93.0857164,219.952825 92.9881238,219.865655 L21.168259,154.792243 C21.031214,154.669178 20.9720355,154.482531 21.0125261,154.304087 C21.0530166,154.124618 21.1869469,153.981043 21.3634442,153.926689 L114.325609,125.023975 C114.501068,124.968596 114.695215,125.010643 114.831222,125.134733 C114.968267,125.258823 115.027445,125.44547 114.987993,125.623914 L93.845693,219.599015 C93.8052024,219.778484 93.6723103,219.921034 93.4947748,219.976413 C93.4439021,219.992821 93.3909529,220 93.3390419,220 Z" id="Fill-16" fill="#5CBBFD"></path>
                <path d="M128.49695,207 C128.368234,207 128.239517,206.950727 128.140969,206.853186 L91.1470686,169.858009 C90.9509771,169.661921 90.9509771,169.344159 91.1470686,169.147066 C91.34316,168.950978 91.6619342,168.950978 91.8580256,169.147066 L128.852931,206.141237 C129.049023,206.33833 129.049023,206.656093 128.852931,206.853186 C128.754383,206.950727 128.625667,207 128.49695,207" id="Fill-18" fill="#5CBBFD"></path>
                <path d="M95.4773789,41 C95.3436548,41 95.2099306,40.9488082 95.1075481,40.8474694 L69.1535738,14.8921993 C68.9488087,14.6874323 68.9488087,14.3572976 69.1535738,14.1535753 C69.3572942,13.9488082 69.6874256,13.9488082 69.8921907,14.1535753 L95.8472097,40.1078007 C96.0509301,40.3125677 96.0509301,40.6427024 95.8472097,40.8474694 C95.7448272,40.9488082 95.6111031,41 95.4773789,41" id="Fill-20" fill="#01C6FF"></path>
                <path d="M80.5141415,94.1346388 L95.8118108,108.517892 L100.775942,88.243793 L80.5141415,94.1346388 Z M96.1018823,110 C95.9712473,110 95.8436981,109.95124 95.7470076,109.859814 L79.1594461,94.2636502 C79.0267538,94.1387021 78.9712082,93.9517879 79.0144103,93.7760479 C79.0576125,93.6003079 79.192362,93.4601222 79.369285,93.4083145 L101.340655,87.0207238 C101.515521,86.9699319 101.706845,87.0136129 101.839537,87.1395769 C101.973258,87.264525 102.028803,87.4514392 101.985601,87.6271792 L96.6017927,109.610934 C96.5585905,109.78769 96.4228124,109.927875 96.246918,109.979683 C96.1996014,109.992889 96.1502275,110 96.1018823,110 Z" id="Fill-22" fill="#28AFB0"></path>
                <path d="M57.5352448,9.46461186 L78.8439314,29.4965492 L85.7597897,1.26050736 L57.5352448,9.46461186 Z M79.1380457,31 C79.0066329,31 78.8773061,30.9495417 78.7792679,30.857893 L56.1616683,9.59539148 C56.0271267,9.4687309 55.9708069,9.28028467 56.0146112,9.10110629 C56.0584154,8.92295766 56.195043,8.78085067 56.3744319,8.72936263 L86.331331,0.020675327 C86.5096769,-0.0308127143 86.7036672,0.0155265229 86.8382088,0.141157344 C86.9737935,0.268847686 87.0290703,0.456264156 86.985266,0.63544254 L79.6449236,30.6056016 C79.6011193,30.78478 79.4644917,30.926887 79.2851029,30.978375 C79.2371268,30.9927917 79.1881077,31 79.1380457,31 Z" id="Fill-24" fill="#28AFB0"></path>
                <g id="Group-28" transform="translate(0.000000, 149.000000)">
                    <mask id="mask-4" fill="white">
                        <use xlink:href="#path-3"></use>
                    </mask>
                    <g id="Clip-27"></g>
                    <path d="M40.1296725,40.985035 C39.9984725,40.985035 39.8672725,40.93481 39.7668225,40.835385 L0.1505725,1.21811 C-0.0503275,1.018235 -0.0503275,0.69331 0.1505725,0.493435 C0.3504475,0.29356 0.6743475,0.29356 0.8752475,0.493435 L40.4925225,40.109685 C40.6923975,40.310585 40.6923975,40.634485 40.4925225,40.835385 C40.3920725,40.93481 40.2608725,40.985035 40.1296725,40.985035" id="Fill-26" fill="#28AFB0" mask="url(#mask-4)"></path>
                </g>
                <path d="M151.48318,107 C151.350941,107 151.218701,106.949378 151.117455,106.849167 L111.151094,66.8814955 C110.949635,66.6800403 110.949635,66.3535796 111.151094,66.1510914 C111.352553,65.9496362 111.680053,65.9496362 111.881512,66.1510914 L151.848906,106.11773 C152.050365,106.320218 152.050365,106.646679 151.848906,106.849167 C151.74766,106.949378 151.61542,107 151.48318,107" id="Fill-29" fill="#28AFB0"></path>
            </g>
        </g>
    </g>
</svg>