<?xml version="1.0" encoding="UTF-8"?>
<svg width="118px" height="127px" viewBox="0 0 118 127" version="1.1" xmlns="http://www.w3.org/2000/svg" xmlns:xlink="http://www.w3.org/1999/xlink">
    <!-- Generator: Sketch 51.2 (57519) - http://www.bohemiancoding.com/sketch -->
    <title>SmallTriangles</title>
    <desc>Created with Sketch.</desc>
    <defs>
        <polygon id="path-1" points="0.0977575926 0.0726314286 20.6326815 0.0726314286 20.6326815 21.7182743 0.0977575926 21.7182743"></polygon>
        <polygon id="path-3" points="0 0.20109 23.79069 0.20109 23.79069 23.99124 0 23.99124"></polygon>
    </defs>
    <g id="Page-1" stroke="none" stroke-width="1" fill="none" fill-rule="evenodd" opacity="0.5">
        <g id="Desktop-HD" transform="translate(-543.000000, -2323.000000)">
            <g id="SmallTriangles" transform="translate(543.000000, 2323.000000)">
                <path d="M69.8557179,37.9376799 L89.3608702,57.1488572 L96.2988349,30.70471 L69.8557179,37.9376799 Z M89.5154231,58 C89.4396047,58 89.3661192,57.9709309 89.3101302,57.916281 L69.086453,37.9975622 C69.0123843,37.9243081 68.9832234,37.8173338 69.0094682,37.7173362 C69.035713,37.6167572 69.1138643,37.5376892 69.2141778,37.5103643 L96.6312693,30.0105402 C96.7321661,29.9826339 96.8394783,30.0111216 96.913547,30.0843757 C96.9876157,30.1570484 97.0167766,30.2640226 96.9905318,30.3646017 L89.7977007,57.7831446 C89.7708727,57.8837237 89.6933046,57.9622102 89.5924079,57.9901165 C89.5673295,57.9965117 89.5410847,58 89.5154231,58 Z" id="Fill-1" fill="#28AFB0"></path>
                <path d="M69.8557179,41.9374552 L89.3608702,61.1482909 L96.2982517,34.7046139 L69.8557179,41.9374552 Z M89.5154231,62 C89.4396047,62 89.3661192,61.9703501 89.3101302,61.9157012 L69.086453,41.9973365 C69.0123843,41.9240837 68.9832234,41.8171113 69.0094682,41.7171155 C69.035713,41.6165382 69.1138643,41.5374717 69.2141778,41.5101472 L96.6312693,34.0104565 C96.7309997,33.9825507 96.838895,34.0116192 96.913547,34.0842907 C96.9876157,34.1569621 97.0167766,34.2639344 96.9905318,34.3645117 L89.7977007,61.7831485 C89.7708727,61.8831444 89.6933046,61.9616295 89.5924079,61.9895353 C89.5673295,61.9965118 89.5410847,62 89.5154231,62 Z" id="Fill-3" fill="#0068AD"></path>
                <path d="M15.8803604,89.8465145 L56.3769473,126.15241 L68.2988648,73.7213131 L15.8803604,89.8465145 Z M56.5564709,127 C56.4825143,127 56.410347,126.973185 56.3548796,126.923635 L15.0966594,89.934538 C15.0179315,89.8645856 14.9839353,89.7584911 15.0071958,89.65706 C15.0304564,89.5550461 15.107395,89.4734349 15.2087871,89.4425392 L68.6125837,73.0136276 C68.7133794,72.982149 68.8249107,73.0060495 68.9030422,73.0765848 C68.9817701,73.1471202 69.0157663,73.2532147 68.9931022,73.3546457 L56.8475258,126.772072 C56.8242652,126.874086 56.7473265,126.955114 56.6459345,126.986592 C56.6167097,126.995919 56.5862921,127 56.5564709,127 Z" id="Fill-5" fill="#28AFB0"></path>
                <g id="Group-9" transform="translate(97.000000, 47.000000)">
                    <mask id="mask-2" fill="white">
                        <use xlink:href="#path-1"></use>
                    </mask>
                    <g id="Clip-8"></g>
                    <path d="M20.3344141,21.7182743 C20.2580881,21.7182743 20.1817622,21.6874743 20.1233252,21.6265029 L0.184965926,0.60896 C0.0686881481,0.486388571 0.0686881481,0.287131429 0.184965926,0.16456 C0.30184,0.0419885714 0.49026963,0.0419885714 0.607143704,0.16456 L20.545503,21.1814743 C20.6617807,21.3046743 20.6617807,21.5033029 20.545503,21.6265029 C20.4870659,21.6874743 20.41074,21.7182743 20.3344141,21.7182743" id="Fill-7" fill="#28AFB0" mask="url(#mask-2)"></path>
                </g>
                <path d="M115.686384,67 C115.606139,67 115.525893,66.9692808 115.464455,66.9084693 L92.0916868,43.5349215 C91.9694377,43.4126717 91.9694377,43.2145642 92.0916868,43.0916874 C92.2145628,42.9694375 92.412669,42.9694375 92.534918,43.0916874 L115.908313,66.4646083 C116.030562,66.5874851 116.030562,66.7855925 115.908313,66.9084693 C115.846875,66.9692808 115.76663,67 115.686384,67" id="Fill-10" fill="#28AFB0"></path>
                <path d="M13.8803653,87.8461135 L54.3771759,124.152401 L66.2985629,71.7213209 L13.8803653,87.8461135 Z M54.5567005,125 C54.4827436,125 54.4105759,124.973185 54.3551081,124.923634 L13.0966599,87.9341379 C13.0179316,87.8641847 12.9839352,87.758089 13.0071959,87.6566569 C13.0304565,87.5546418 13.1073956,87.4730298 13.2087883,87.4421338 L66.6122836,71.0136278 C66.7130798,70.9821489 66.8252081,71.0060495 66.9033401,71.0765857 C66.9820684,71.1471218 67.0160648,71.2532175 66.9928041,71.3546496 L54.847757,124.772069 C54.8244963,124.874084 54.7475572,124.955113 54.6461646,124.986592 C54.6169397,124.995919 54.5865219,125 54.5567005,125 Z" id="Fill-12" fill="#28AFB0"></path>
                <path d="M74.7220061,119 C74.6508752,119 74.5797444,118.971473 74.5252848,118.915002 L54.0812726,97.4967418 C53.9729091,97.3832174 53.9729091,97.1992498 54.0812726,97.0851433 C54.1901917,96.9716189 54.3657961,96.9716189 54.4741595,97.0851433 L74.9187274,118.502822 C75.0270909,118.616928 75.0270909,118.800896 74.9187274,118.915002 C74.8642679,118.971473 74.793137,119 74.7220061,119" id="Fill-14" fill="#28AFB0"></path>
                <path d="M11.8803604,87.8465145 L52.3775437,124.15241 L64.2988648,71.7213131 L11.8803604,87.8465145 Z M52.5564709,125 C52.4831107,125 52.4109435,124.973185 52.3548796,124.923635 L11.0966594,87.934538 C11.0179315,87.8645856 10.9839353,87.7584911 11.0071958,87.65706 C11.0304564,87.5550461 11.107395,87.4734349 11.2087871,87.4425392 L64.6125837,71.0136276 C64.7133794,70.982149 64.8249107,71.0060495 64.9030422,71.0765848 C64.9817701,71.1471202 65.0157663,71.2532147 64.9931022,71.3546457 L52.8475258,124.772072 C52.8242652,124.874086 52.747923,124.955114 52.6459345,124.986592 C52.6167097,124.995919 52.5862921,125 52.5564709,125 Z" id="Fill-16" fill="#5CBBFD"></path>
                <path d="M69.7219988,119 C69.650866,119 69.5797333,118.971473 69.5252722,118.915002 L49.0812747,97.4967418 C48.9729084,97.3832174 48.9729084,97.1992498 49.0812747,97.0851433 C49.189641,96.9716189 49.3658057,96.9716189 49.474172,97.0851433 L69.9187253,118.502822 C70.0270916,118.616928 70.0270916,118.800896 69.9187253,118.915002 C69.8642643,118.971473 69.7931315,119 69.7219988,119" id="Fill-18" fill="#5CBBFD"></path>
                <path d="M55.6709423,26 C55.5867456,26 55.5025489,25.9677681 55.4380858,25.9039622 L39.0966946,9.56175515 C38.9677685,9.43282774 38.9677685,9.22496518 39.0966946,9.09669556 C39.224963,8.96776815 39.4328235,8.96776815 39.5617497,9.09669556 L55.9037987,25.4382449 C56.0320671,25.5671723 56.0320671,25.7750348 55.9037987,25.9039622 C55.8393356,25.9677681 55.755139,26 55.6709423,26" id="Fill-20" fill="#01C6FF"></path>
                <path d="M45.8558191,54.0326219 L54.5023279,62.1622868 L57.3081409,50.7030134 L45.8558191,54.0326219 Z M54.6662813,63 C54.5924441,63 54.5203511,62.9724399 54.4657,62.9207646 L45.0901217,54.1055414 C45.0151217,54.0349186 44.9837264,53.9292714 45.008145,53.8299401 C45.0325636,53.7306088 45.1087263,53.6513734 45.2087263,53.6220908 L57.6273268,50.0117134 C57.726164,49.983005 57.8343035,50.0076943 57.9093035,50.0788913 C57.9848848,50.1495141 58.0162802,50.2551613 57.9918616,50.3544926 L54.9488393,62.7800931 C54.9244207,62.8799986 54.8476766,62.959234 54.748258,62.9885166 C54.7215138,62.9959808 54.6936069,63 54.6662813,63 Z" id="Fill-22" fill="#28AFB0"></path>
                <path d="M30.8419084,5.19027102 L42.5273172,16.175527 L46.3198847,0.691245972 L30.8419084,5.19027102 Z M42.6886057,17 C42.6165406,17 42.5456194,16.9723293 42.4918566,16.9220704 L30.0886568,5.26198888 C30.0148759,5.19252985 29.9839909,5.08918837 30.0080126,4.99092925 C30.0320343,4.89323485 30.1069591,4.81530521 30.2053336,4.78706983 L46.6333105,0.0113380825 C46.7311131,-0.0168972949 46.8374949,0.0085145448 46.9112758,0.0774088658 C46.9856287,0.147432602 47.0159418,0.250209376 46.9919201,0.34846849 L42.966571,16.783717 C42.9425493,16.8819761 42.8676245,16.9599058 42.76925,16.9881411 C42.7429405,16.996047 42.7160591,17 42.6886057,17 Z" id="Fill-24" fill="#28AFB0"></path>
                <g id="Group-28" transform="translate(0.000000, 84.000000)">
                    <mask id="mask-4" fill="white">
                        <use xlink:href="#path-3"></use>
                    </mask>
                    <g id="Clip-27"></g>
                    <path d="M23.49054,23.99124 C23.41374,23.99124 23.33694,23.96184 23.27814,23.90364 L0.08814,0.71304 C-0.02946,0.59604 -0.02946,0.40584 0.08814,0.28884 C0.20514,0.17184 0.39474,0.17184 0.51234,0.28884 L23.70294,23.47884 C23.81994,23.59644 23.81994,23.78604 23.70294,23.90364 C23.64414,23.96184 23.56734,23.99124 23.49054,23.99124" id="Fill-26" fill="#28AFB0" mask="url(#mask-4)"></path>
                </g>
                <path d="M85.6974714,61 C85.6200627,61 85.5426541,60.9703676 85.4833881,60.9117075 L62.0884454,37.5159974 C61.9705182,37.3980724 61.9705182,37.2069734 62.0884454,37.0884437 C62.2063726,36.9705188 62.3980799,36.9705188 62.5160071,37.0884437 L85.9115546,60.4835491 C86.0294818,60.6020788 86.0294818,60.7931777 85.9115546,60.9117075 C85.8522886,60.9703676 85.77488,61 85.6974714,61" id="Fill-29" fill="#28AFB0"></path>
            </g>
        </g>
    </g>
</svg>