<svg xmlns="http://www.w3.org/2000/svg" viewBox="0 0 466.91 59.57"><defs><style>.cls-1{fill:#eaf2ef;}</style></defs><title>sportechLogoWhite</title><g id="Layer_2" data-name="Layer 2"><g id="Layer_1-2" data-name="Layer 1"><path class="cls-1" d="M56.57,57.41H0S5.18,48,21.22,48h49S65.53,57.41,56.57,57.41Z"/><path class="cls-1" d="M56.57,10.27H0S5.18.84,21.22.84h49S65.53,10.27,56.57,10.27Z"/><path class="cls-1" d="M13.67,33.84H70.24S65.06,24.41,49,24.41H0S4.71,33.84,13.67,33.84Z"/><path class="cls-1" d="M149.82,25v-.63H133.88v9.52h15.94Zm197-.63H304v9.52h42.89ZM250,10.27h45.63V.7H250ZM431,.7H415.43v9.57H431ZM347.68.7H304v9.57h43.71Zm53.05,3.91Q395.9,0,383.63,0h-4.3Q367,0,362,5.25a14.83,14.83,0,0,0-3,5h45.1A13.79,13.79,0,0,0,400.73,4.61ZM265,33.93h15.79V24.41H265ZM373.39,25c0-.22,0-.42,0-.63H357.06v9.52h16.33ZM78.21,33.93h47a26,26,0,0,0,1.67-9.52H78.21Zm337.22,0h51.48V24.41H415.43ZM240.17,30.57a12.1,12.1,0,0,0,2.61-6.16H196.15v9.52h38.64A11.21,11.21,0,0,0,240.17,30.57Zm-70-5.53v8.89h15.94V24.41h-16C170.16,24.62,170.17,24.82,170.17,25ZM451.33.7v9.57h15.58V.7ZM362,54.32q5,5.25,17.31,5.25h5.27q11.37,0,16.37-5a15.56,15.56,0,0,0,3.71-6.47H358.63A15.88,15.88,0,0,0,362,54.32Zm-58,4.55h44.34V48.08H304ZM238,4.24Q233,.7,219.59.7H196.15v9.57h46A11.07,11.07,0,0,0,238,4.24Zm213.3,54.63h15.58V48.08H451.33ZM227.09,48.4V58.87H243V48.08h-16C227.07,48.19,227.09,48.28,227.09,48.4ZM415.43,58.87H431V48.08H415.43ZM265,58.87h15.79V48.08H265Zm-68.83,0h15.58V48.08H196.15ZM122,5.21Q117,.71,105.48.7H78.21v9.57h47.11A13.33,13.33,0,0,0,122,5.21Zm59.17.06Q176.15,0,163.77,0h-7.64Q143.8,0,138.84,5.25a15,15,0,0,0-3,5h48.3A14.83,14.83,0,0,0,181.13,5.27ZM138.84,54.32q4.95,5.25,17.29,5.25h7.64q12.38,0,17.36-5.27a16,16,0,0,0,3.4-6.22H135.44A15.77,15.77,0,0,0,138.84,54.32ZM78.21,58.87H93.79V48.08H78.21Z"/></g></g></svg>