<?xml version="1.0" encoding="UTF-8"?>
<svg width="425px" height="417px" viewBox="0 0 425 417" version="1.1" xmlns="http://www.w3.org/2000/svg" xmlns:xlink="http://www.w3.org/1999/xlink">
    <!-- Generator: Sketch 51.2 (57519) - http://www.bohemiancoding.com/sketch -->
    <title>TrianglesLeft</title>
    <desc>Created with Sketch.</desc>
    <defs>
        <polygon id="path-1" points="0.759091075 0.122737763 128.631646 0.122737763 128.631646 127.95045 0.759091075 127.95045"></polygon>
    </defs>
    <g id="Page-1" stroke="none" stroke-width="1" fill="none" fill-rule="evenodd" opacity="0.75">
        <g id="Desktop-HD" transform="translate(-283.000000, -50.000000)">
            <g id="TrianglesLeft" transform="translate(283.000000, 50.000000)">
                <path d="M230.846046,37.5673291 L330.064992,139.047498 L368.372725,2.41053953 L230.846046,37.5673291 Z M330.550247,141.920833 C330.29001,141.920833 330.035642,141.817166 329.851715,141.62548 L228.263238,37.7238075 C228.018654,37.473442 227.926691,37.1115857 228.020611,36.7751571 C228.114531,36.4387284 228.380639,36.1785831 228.719143,36.0925199 L369.529119,0.0966148611 C369.86958,0.0085957485 370.227651,0.110306723 370.470278,0.360672199 C370.714862,0.609081694 370.806826,0.970938046 370.712906,1.30736665 L331.493363,141.204944 C331.399443,141.541373 331.131379,141.803474 330.792875,141.889537 C330.712651,141.911053 330.630471,141.920833 330.550247,141.920833 Z" id="Fill-5" fill="#28AFB0"></path>
                <path d="M216.52066,290.236363 L288.254229,355.914269 L309.284544,260.972942 L216.52066,290.236363 Z M288.843187,358.758264 C288.602516,358.758264 288.365759,358.668289 288.181832,358.502031 L213.949593,290.535628 C213.691312,290.298954 213.579781,289.944922 213.654135,289.602625 C213.730445,289.262285 213.980899,288.986491 214.31549,288.882824 L310.313754,258.598382 C310.640518,258.492759 311.008372,258.57491 311.26861,258.809628 C311.526891,259.046301 311.636464,259.400334 311.562111,259.74263 L289.798043,357.993476 C289.721733,358.33186 289.471279,358.607653 289.136688,358.713276 C289.040811,358.742616 288.942977,358.758264 288.843187,358.758264 Z" id="Fill-7" fill="#28AFB0"></path>
                <path d="M213.931591,47.6547106 L313.152494,149.134879 L351.458271,12.497921 L213.931591,47.6547106 Z M313.637749,152.008214 C313.377511,152.008214 313.123144,151.904547 312.939217,151.712861 L211.348784,47.811189 C211.104199,47.5608235 211.012236,47.1989672 211.106156,46.8625386 C211.200076,46.5261099 211.466184,46.2659646 211.804688,46.1799014 L352.614664,10.1839964 C352.953168,10.0940213 353.313196,10.1996442 353.555823,10.4480537 C353.800407,10.6964632 353.892371,11.0583195 353.798451,11.3947481 L314.578908,151.292326 C314.486945,151.628754 314.218881,151.890856 313.880376,151.976919 C313.800153,151.998435 313.717972,152.008214 313.637749,152.008214 Z" id="Fill-9" fill="#DCFFD3"></path>
                <path d="M210.088882,297.281021 L281.824407,362.958927 L302.854723,268.019556 L210.088882,297.281021 Z M282.413366,365.802922 C282.172695,365.802922 281.935938,365.712947 281.75201,365.546689 L207.517815,297.580286 C207.259534,297.343613 207.148003,296.98958 207.222357,296.647284 C207.298667,296.306943 207.549121,296.03115 207.883712,295.927483 L303.883932,265.644996 C304.210697,265.537417 304.580508,265.621525 304.838789,265.856242 C305.097069,266.092916 305.206643,266.446948 305.132289,266.789245 L283.368222,365.038134 C283.291912,365.376519 283.041458,365.652312 282.706867,365.757935 C282.61099,365.787275 282.513156,365.802922 282.413366,365.802922 Z" id="Fill-11" fill="#B0FFD3"></path>
                <path d="M237.711618,258.31809 C237.461164,258.31809 237.21071,258.222247 237.018956,258.032517 L129.448932,150.500545 C129.067381,150.119129 129.067381,149.499083 129.448932,149.117667 C129.830483,148.736251 130.450748,148.736251 130.832299,149.117667 L238.40428,256.647683 C238.785832,257.031055 238.785832,257.649145 238.40428,258.032517 C238.212527,258.222247 237.962072,258.31809 237.711618,258.31809" id="Fill-17" fill="#28AFB0"></path>
                <path d="M405.093206,189.516875 C404.842752,189.516875 404.592298,189.421032 404.400544,189.231302 L296.904873,81.771701 C296.523322,81.3902848 296.523322,80.7702391 296.904873,80.3888229 C297.286424,80.0074068 297.906689,80.0074068 298.288241,80.3888229 L405.785868,187.846468 C406.167419,188.22984 406.167419,188.847929 405.785868,189.231302 C405.594114,189.421032 405.34366,189.516875 405.093206,189.516875" id="Fill-19" fill="#28AFB0"></path>
                <path d="M387.13154,416.975865 C386.881086,416.975865 386.630632,416.880022 386.438878,416.690292 L284.423847,314.709392 C284.040339,314.32602 284.040339,313.707931 284.423847,313.326514 C284.805398,312.943142 285.425663,312.943142 285.807214,313.326514 L387.824202,415.305458 C388.205753,415.68883 388.205753,416.30692 387.824202,416.690292 C387.632448,416.880022 387.381994,416.975865 387.13154,416.975865" id="Fill-21" fill="#28AFB0"></path>
                <path d="M248.351025,268.955493 C248.100571,268.955493 247.850117,268.85965 247.658363,268.66992 L129.447954,150.499371 C129.066403,150.117955 129.066403,149.499865 129.447954,149.116493 C129.831462,148.735077 130.44977,148.735077 130.831321,149.116493 L249.043687,267.285086 C249.425238,267.668458 249.425238,268.286548 249.043687,268.66992 C248.851933,268.85965 248.601479,268.955493 248.351025,268.955493" id="Fill-33" fill="#28AFB0"></path>
                <path d="M341.608381,358.411077 C341.357927,358.411077 341.107473,358.315234 340.915719,358.125504 L284.422673,301.650486 C284.041121,301.26907 284.041121,300.65098 284.422673,300.267608 C284.80618,299.886191 285.424489,299.886191 285.80604,300.267608 L342.301044,356.74067 C342.682595,357.124042 342.682595,357.742132 342.301044,358.125504 C342.10929,358.315234 341.858836,358.411077 341.608381,358.411077" id="Fill-35" fill="#28AFB0"></path>
                <g id="Group-39" transform="translate(295.859619, 79.980023)">
                    <mask id="mask-2" fill="white">
                        <use xlink:href="#path-1"></use>
                    </mask>
                    <g id="Clip-38"></g>
                    <path d="M127.653702,127.95045 C127.403247,127.95045 127.152793,127.854607 126.96104,127.664877 L1.04525442,1.79167794 C0.663703293,1.41026178 0.663703293,0.790216033 1.04525442,0.408799878 C1.42680555,0.0273837239 2.04707071,0.0273837239 2.42862184,0.408799878 L128.346364,126.280043 C128.727915,126.663415 128.727915,127.281505 128.346364,127.664877 C128.15461,127.854607 127.904156,127.95045 127.653702,127.95045" id="Fill-37" fill="#28AFB0" mask="url(#mask-2)"></path>
                </g>
                <path d="M108.183425,208.438637 C107.932971,208.438637 107.682516,208.342794 107.490763,208.153064 L58.881149,159.55869 C58.4976412,159.175317 58.4976412,158.557228 58.881149,158.175811 C59.2627002,157.792439 59.8810087,157.792439 60.2645165,158.175811 L108.876087,206.76823 C109.257638,207.151602 109.257638,207.769691 108.876087,208.153064 C108.684333,208.342794 108.433879,208.438637 108.183425,208.438637" id="Fill-42" fill="#01C6FF"></path>
                <path d="M322.376052,253.051808 L372.652751,294.845239 L383.723603,230.423073 L322.376052,253.051808 Z M373.331716,297.659895 C373.106699,297.659895 372.883638,297.581656 372.707538,297.433001 L319.822595,253.4743 C319.554531,253.251318 319.423434,252.901198 319.482134,252.554989 C319.542791,252.210737 319.781505,251.925164 320.110226,251.803893 L384.635413,228.001569 C384.956307,227.876386 385.331988,227.94289 385.600052,228.165871 C385.868116,228.390809 385.999214,228.738974 385.938557,229.085182 L374.296356,296.848163 C374.237655,297.190459 373.998941,297.477989 373.67022,297.597303 C373.560647,297.640335 373.44716,297.659895 373.331716,297.659895 Z" id="Fill-48" fill="#28AFB0"></path>
                <path d="M320.41938,251.095828 L370.696078,292.889259 L381.766931,228.467092 L320.41938,251.095828 Z M371.375044,295.703914 C371.150026,295.703914 370.926966,295.625675 370.750865,295.477021 L317.865922,251.51832 C317.597858,251.295338 317.466761,250.945218 317.525461,250.599009 C317.586118,250.254757 317.824832,249.969184 318.153553,249.847913 L382.67874,226.045589 C382.999635,225.920406 383.373359,225.988865 383.64338,226.209891 C383.911444,226.434829 384.042541,226.782993 383.981884,227.129202 L372.339683,294.892183 C372.280983,295.234479 372.042269,295.522008 371.713548,295.641323 C371.603974,295.684355 371.490487,295.703914 371.375044,295.703914 Z" id="Fill-50" fill="#00EBFF"></path>
                <path d="M102.989829,141.874085 L140.55794,177.056302 L152.254928,126.942132 L102.989829,141.874085 Z M141.125375,179.906166 C140.880791,179.906166 140.64012,179.814234 140.456193,179.644064 L100.416805,142.14401 C100.160481,141.905381 100.052864,141.547436 100.131131,141.207096 C100.211354,140.866755 100.465721,140.594874 100.800312,140.493163 L153.307618,124.579307 C153.640252,124.47564 154.00615,124.561704 154.260517,124.800333 C154.516841,125.040919 154.624458,125.396907 154.546191,125.737248 L142.080231,179.151157 C142.000007,179.489542 141.74564,179.763379 141.411049,179.86509 C141.317129,179.892474 141.221252,179.906166 141.125375,179.906166 Z" id="Fill-52" fill="#28AFB0"></path>
                <path d="M141.89963,225.742607 C141.649176,225.742607 141.398722,225.646764 141.206968,225.457034 L0.406775737,84.7066494 C0.0252246101,84.3232773 0.0252246101,83.7051875 0.406775737,83.3218154 C0.790283536,82.9403992 1.40859203,82.9403992 1.79209983,83.3218154 L142.592292,224.0722 C142.973843,224.455572 142.973843,225.073662 142.592292,225.457034 C142.400538,225.646764 142.150084,225.742607 141.89963,225.742607" id="Fill-59" fill="#01C6FF"></path>
                <path d="M295.131541,151.785819 C294.881087,151.785819 294.630633,151.689976 294.438879,151.500246 L148.036733,5.14793393 C147.655182,4.7645618 147.655182,4.14647203 148.036733,3.76505587 C148.420241,3.38168374 149.03855,3.38168374 149.420101,3.76505587 L295.824203,150.115412 C296.205754,150.498784 296.205754,151.116874 295.824203,151.500246 C295.632449,151.689976 295.381995,151.785819 295.131541,151.785819" id="Fill-61" fill="#01C6FF"></path>
                <path d="M195.926096,412.418236 C195.675642,412.418236 195.425188,412.322393 195.233434,412.132663 L65.1577629,282.10105 C64.7762118,281.719633 64.7762118,281.099588 65.1577629,280.718172 C65.539314,280.336755 66.1595792,280.336755 66.5411303,280.718172 L196.618758,410.747829 C197.000309,411.131201 197.000309,411.74929 196.618758,412.132663 C196.427004,412.322393 196.17655,412.418236 195.926096,412.418236" id="Fill-63" fill="#01C6FF"></path>
            </g>
        </g>
    </g>
</svg>