<?xml version="1.0" encoding="UTF-8"?>
<svg width="306px" height="328px" viewBox="0 0 306 328" version="1.1" xmlns="http://www.w3.org/2000/svg" xmlns:xlink="http://www.w3.org/1999/xlink">
    <!-- Generator: Sketch 51.2 (57519) - http://www.bohemiancoding.com/sketch -->
    <title>TrianglesRight</title>
    <desc>Created with Sketch.</desc>
    <defs>
        <polygon id="path-1" points="0.246721543 0.174975714 52.072958 0.174975714 52.072958 52.3212971 0.246721543 52.3212971"></polygon>
        <polygon id="path-3" points="0 0.502725 59.476725 0.502725 59.476725 59.9781 0 59.9781"></polygon>
    </defs>
    <g id="Page-1" stroke="none" stroke-width="1" fill="none" fill-rule="evenodd" opacity="0.840569196">
        <g id="Desktop-HD" transform="translate(-1102.000000, -517.000000)">
            <g id="TrianglesRight" transform="translate(1102.000000, 517.000000)">
                <path d="M176.200418,101.694665 L226.356523,151.780949 L244.197004,82.8372796 L176.200418,101.694665 Z M226.753945,154 C226.558983,154 226.370021,153.924213 226.226049,153.781733 L174.222308,101.850787 C174.031845,101.659803 173.95686,101.380906 174.024347,101.120198 C174.091833,100.857974 174.292794,100.651833 174.550743,100.580593 L245.051835,81.0274798 C245.311284,80.9547241 245.58723,81.0289956 245.777692,81.2199795 C245.968155,81.4094476 246.04314,81.6883447 245.975653,81.9505686 L227.479802,153.434627 C227.410815,153.696851 227.211355,153.901477 226.951906,153.974232 C226.887419,153.990906 226.819932,154 226.753945,154 Z" id="Fill-1" fill="#28AFB0"></path>
                <path d="M175.200418,107.69408 L225.356523,157.779473 L243.195504,88.8370292 L175.200418,107.69408 Z M225.753945,160 C225.558983,160 225.370021,159.922698 225.226049,159.780221 L173.222308,107.850199 C173.031845,107.659218 172.95686,107.380326 173.024347,107.119622 C173.091833,106.857403 173.292794,106.651266 173.550743,106.580027 L244.051835,87.0272616 C244.308285,86.9545071 244.58573,87.030293 244.777692,87.2197578 C244.968155,87.4092226 245.04314,87.6881148 244.975653,87.950334 L226.479802,159.434637 C226.410815,159.695341 226.211355,159.899963 225.951906,159.972717 C225.887419,159.990906 225.819932,160 225.753945,160 Z" id="Fill-3" fill="#0068AD"></path>
                <path d="M40.233507,232.364176 L142.974848,325.81824 L173.221194,190.856713 L40.233507,232.364176 Z M143.430306,328 C143.242675,328 143.059584,327.930976 142.918861,327.803432 L38.2452285,232.590755 C38.0454928,232.410693 37.9592432,232.137597 38.0182561,231.876506 C38.0772689,231.613915 38.2724652,231.403842 38.5297006,231.324314 L174.017111,189.035079 C174.272833,188.95405 174.555792,189.015572 174.754014,189.197135 C174.95375,189.378698 175.04,189.651793 174.9825,189.912884 L144.168723,327.413296 C144.10971,327.675887 143.914514,327.88446 143.657278,327.965488 C143.583134,327.989496 143.505963,328 143.430306,328 Z" id="Fill-5" fill="#28AFB0"></path>
                <g id="Group-9" transform="translate(253.000000, 121.000000)">
                    <mask id="mask-2" fill="white">
                        <use xlink:href="#path-1"></use>
                    </mask>
                    <g id="Clip-8"></g>
                    <path d="M51.3201879,52.3212971 C51.1275558,52.3212971 50.9349237,52.2470971 50.7874398,52.1002114 L0.466818765,1.46704 C0.173355802,1.17175429 0.173355802,0.691725714 0.466818765,0.39644 C0.761786667,0.101154286 1.23734716,0.101154286 1.53231506,0.39644 L51.852936,51.0280971 C52.146399,51.3248971 52.146399,51.8034114 51.852936,52.1002114 C51.7054521,52.2470971 51.51282,52.3212971 51.3201879,52.3212971" id="Fill-7" fill="#28AFB0" mask="url(#mask-2)"></path>
                </g>
                <path d="M295.242095,169 C295.048168,169 294.854241,168.925762 294.705766,168.778801 L238.221576,112.292727 C237.926141,111.99729 237.926141,111.51853 238.221576,111.221578 C238.518527,110.926141 238.997283,110.926141 239.292719,111.221578 L295.778424,167.706137 C296.073859,168.003089 296.073859,168.481849 295.778424,168.778801 C295.629948,168.925762 295.436022,169 295.242095,169" id="Fill-10" fill="#28AFB0"></path>
                <path d="M36.2335193,226.363144 L138.975428,319.818216 L169.220428,184.856733 L36.2335193,226.363144 Z M139.430888,322 C139.243257,322 139.060165,321.930975 138.919441,321.803429 L34.2452299,226.589725 C34.045493,226.409661 33.959243,226.136562 34.0182562,225.875469 C34.0772693,225.612874 34.2724667,225.402799 34.5297035,225.32327 L170.016349,183.035079 C170.272073,182.95405 170.556546,183.015572 170.75477,183.197137 C170.954507,183.378702 171.040757,183.6518 170.981744,183.912894 L140.169309,321.413289 C140.110296,321.675884 139.915099,321.884458 139.657862,321.965488 C139.583717,321.989496 139.506546,322 139.430888,322 Z" id="Fill-12" fill="#28AFB0"></path>
                <path d="M192.258683,302 C192.069001,302 191.879318,301.927387 191.734093,301.783642 L137.216727,247.264434 C136.927758,246.975463 136.927758,246.507181 137.216727,246.216728 C137.507178,245.927757 137.975456,245.927757 138.264425,246.216728 L192.783273,300.734455 C193.072242,301.024908 193.072242,301.493189 192.783273,301.783642 C192.638048,301.927387 192.448365,302 192.258683,302" id="Fill-14" fill="#28AFB0"></path>
                <path d="M33.233507,225.364176 L135.976361,318.81824 L166.221194,183.856713 L33.233507,225.364176 Z M136.430306,321 C136.244188,321 136.061097,320.930976 135.918861,320.803432 L31.2452285,225.590755 C31.0454928,225.410693 30.9592432,225.137597 31.0182561,224.876506 C31.0772689,224.613915 31.2724652,224.403842 31.5297006,224.324314 L167.017111,182.035079 C167.272833,181.95405 167.555792,182.015572 167.754014,182.197135 C167.95375,182.378698 168.04,182.651793 167.9825,182.912884 L137.168723,320.413296 C137.10971,320.675887 136.916027,320.88446 136.657278,320.965488 C136.583134,320.989496 136.505963,321 136.430306,321 Z" id="Fill-16" fill="#5CBBFD"></path>
                <path d="M188.258663,302 C188.068976,302 187.879289,301.927387 187.734059,301.783642 L133.216733,247.264434 C132.927756,246.975463 132.927756,246.507181 133.216733,246.216728 C133.505709,245.927757 133.975482,245.927757 134.264459,246.216728 L188.783267,300.734455 C189.072244,301.024908 189.072244,301.493189 188.783267,301.783642 C188.638038,301.927387 188.448351,302 188.258663,302" id="Fill-18" fill="#5CBBFD"></path>
                <path d="M139.245103,59 C139.051946,59 138.858789,58.9260563 138.710903,58.7796781 L101.221829,21.2887324 C100.926057,20.9929577 100.926057,20.5160966 101.221829,20.221831 C101.516092,19.9260563 101.992948,19.9260563 102.28872,20.221831 L139.779303,57.7112676 C140.073566,58.0070423 140.073566,58.4839034 139.779303,58.7796781 C139.631417,58.9260563 139.43826,59 139.245103,59" id="Fill-20" fill="#01C6FF"></path>
                <path d="M117.238296,137.546857 L139.852242,158.809058 L147.190522,128.838651 L117.238296,137.546857 Z M140.281043,161 C140.087931,161 139.89938,160.92792 139.756446,160.792769 L115.235703,137.73757 C115.039549,137.552864 114.957438,137.276556 115.021302,137.016766 C115.085166,136.756977 115.284361,136.549746 115.5459,136.473161 L148.025316,127.030635 C148.283814,126.955551 148.56664,127.020123 148.762794,127.206331 C148.960468,127.391037 149.042579,127.667345 148.978715,127.927134 L141.020041,160.424859 C140.956177,160.68615 140.755462,160.893381 140.495444,160.969967 C140.425498,160.989488 140.35251,161 140.281043,161 Z" id="Fill-22" fill="#28AFB0"></path>
                <path d="M84.2285811,13.7389527 L115.160546,42.8175714 L125.199695,1.82976875 L84.2285811,13.7389527 Z M115.587486,45 C115.396725,45 115.208993,44.9267541 115.066679,44.7937157 L82.2346798,13.9287941 C82.0393774,13.744932 81.9576229,13.471381 82.0212098,13.2112833 C82.0847966,12.9526805 82.283127,12.7463961 82.5435302,12.6716554 L126.029351,0.0300125714 C126.288241,-0.0447281336 126.569839,0.0225385009 126.765142,0.204905821 C126.961958,0.39026277 127.042199,0.662318936 126.978612,0.92241659 L116.323276,44.4274862 C116.259689,44.6875839 116.061359,44.8938682 115.800956,44.9686089 C115.731313,44.9895363 115.660156,45 115.587486,45 Z" id="Fill-24" fill="#28AFB0"></path>
                <g id="Group-28" transform="translate(0.000000, 217.000000)">
                    <mask id="mask-4" fill="white">
                        <use xlink:href="#path-3"></use>
                    </mask>
                    <g id="Clip-27"></g>
                    <path d="M58.72635,59.9781 C58.53435,59.9781 58.34235,59.9046 58.19535,59.7591 L0.22035,1.7826 C-0.07365,1.4901 -0.07365,1.0146 0.22035,0.7221 C0.51285,0.4296 0.98685,0.4296 1.28085,0.7221 L59.25735,58.6971 C59.54985,58.9911 59.54985,59.4651 59.25735,59.7591 C59.11035,59.9046 58.91835,59.9781 58.72635,59.9781" id="Fill-26" fill="#28AFB0" mask="url(#mask-4)"></path>
                </g>
                <path d="M221.243678,156 C221.050157,156 220.856635,155.925919 220.70847,155.779269 L162.221114,97.2899934 C161.926295,96.995181 161.926295,96.5174336 162.221114,96.2211093 C162.515932,95.9262969 162.9952,95.9262969 163.290018,96.2211093 L221.778886,154.708873 C222.073705,155.005197 222.073705,155.482944 221.778886,155.779269 C221.630722,155.925919 221.4372,156 221.243678,156" id="Fill-29" fill="#28AFB0"></path>
            </g>
        </g>
    </g>
</svg>